<svg width="229" height="284" viewBox="0 0 229 284" fill="none" xmlns="http://www.w3.org/2000/svg">
<rect x="12" y="53" width="198.556" height="198.556" rx="99.2779" fill="#F2F1F1"/>
<rect x="188.139" width="22.7851" height="22.7851" rx="11.3925" fill="#EEEDED"/>
<rect x="11.5544" y="266.911" width="17.0888" height="17.0888" rx="8.54441" fill="#EEEDED"/>
<rect x="7.58221" y="70.5062" width="12.2063" height="12.2063" rx="6.10315" transform="rotate(38.4017 7.58221 70.5062)" fill="#E31E24"/>
<rect x="220.213" y="228.776" width="12.2063" height="12.2063" rx="6.10315" transform="rotate(-139.884 220.213 228.776)" fill="#E31E24"/>
<rect x="31.0052" y="22.6155" width="34.9914" height="34.9914" rx="17.4957" transform="rotate(38.4017 31.0052 22.6155)" fill="#2B2A29"/>
<rect x="195.368" y="275.944" width="34.9914" height="34.9914" rx="17.4957" transform="rotate(-139.884 195.368 275.944)" fill="#2B2A29"/>
<path opacity="0.4" fill-rule="evenodd" clip-rule="evenodd" d="M80.553 194.942C80.553 190.742 83.953 187.342 88.153 187.342C92.303 187.342 95.703 190.742 95.703 194.942C95.703 199.092 92.303 202.492 88.153 202.492C83.953 202.492 80.553 199.092 80.553 194.942ZM136.803 194.942C136.803 190.742 140.203 187.342 144.403 187.342C148.553 187.342 151.953 190.742 151.953 194.942C151.953 199.092 148.553 202.492 144.403 202.492C140.203 202.492 136.803 199.092 136.803 194.942Z" fill="#E31E24"/>
<path fill-rule="evenodd" clip-rule="evenodd" d="M151.954 123.745C155.004 123.745 157.004 124.795 159.004 127.095C161.004 129.395 161.354 132.695 160.904 135.69L156.154 168.49C155.254 174.795 149.854 179.44 143.504 179.44H88.954C82.304 179.44 76.804 174.34 76.254 167.745L71.654 113.24L64.104 111.94C62.104 111.59 60.704 109.64 61.054 107.64C61.404 105.59 63.354 104.24 65.404 104.54L77.329 106.34C79.029 106.645 80.279 108.04 80.429 109.74L81.379 120.94C81.529 122.545 82.829 123.745 84.429 123.745H151.954ZM121.654 149.74H135.504C137.604 149.74 139.254 148.04 139.254 145.99C139.254 143.89 137.604 142.24 135.504 142.24H121.654C119.554 142.24 117.904 143.89 117.904 145.99C117.904 148.04 119.554 149.74 121.654 149.74Z" fill="#E31E24"/>
</svg>
