<svg width="229" height="284" viewBox="0 0 229 284" fill="none" xmlns="http://www.w3.org/2000/svg">
<rect x="12" y="53" width="198.556" height="198.556" rx="99.2779" fill="#F2F1F1"/>
<rect x="188.139" width="22.7851" height="22.7851" rx="11.3925" fill="#EEEDED"/>
<rect x="11.5544" y="266.911" width="17.0888" height="17.0888" rx="8.54441" fill="#EEEDED"/>
<rect x="7.58221" y="70.5062" width="12.2063" height="12.2063" rx="6.10315" transform="rotate(38.4017 7.58221 70.5062)" fill="#E31E24"/>
<rect x="220.213" y="228.776" width="12.2063" height="12.2063" rx="6.10315" transform="rotate(-139.884 220.213 228.776)" fill="#E31E24"/>
<rect x="31.0052" y="22.6155" width="34.9914" height="34.9914" rx="17.4957" transform="rotate(38.4017 31.0052 22.6155)" fill="#2B2A29"/>
<rect x="195.368" y="275.944" width="34.9914" height="34.9914" rx="17.4957" transform="rotate(-139.884 195.368 275.944)" fill="#2B2A29"/>
<path d="M105.339 170.452L112.034 187.777C113.74 192.193 111.543 197.153 107.127 198.86C102.712 200.566 97.749 198.369 96.0427 193.954L89.3489 176.631L77.356 181.265C74.5192 181.851 68.4338 181.956 66.7861 177.692L62.6668 167.031L58.5476 156.371C56.8998 152.107 61.4748 148.093 63.9683 146.619L75.9612 141.984L98.6145 133.231L112.002 167.877L105.339 170.452Z" fill="#E31E24"/>
<path opacity="0.4" d="M150.269 168.807L125.328 162.728L120.664 164.53L107.276 129.884L111.94 128.082L126.313 106.811C129.705 101.792 137.34 102.656 139.524 108.307L146.708 126.899C146.708 126.899 153.371 124.325 155.945 130.987C158.52 137.65 151.857 140.225 151.857 140.225L159.041 158.817C161.225 164.468 156.155 170.241 150.269 168.807Z" fill="#E31E24"/>
</svg>
