<svg width="224" height="284" viewBox="0 0 224 284" fill="none" xmlns="http://www.w3.org/2000/svg">
<path d="M186.139 11.3925C186.139 5.10062 191.24 0 197.531 0C203.823 0 208.924 5.10062 208.924 11.3925C208.924 17.6845 203.823 22.7851 197.531 22.7851C191.24 22.7851 186.139 17.6845 186.139 11.3925Z" fill="#EEEDED"/>
<path d="M10 152.278C10 97.4483 54.4483 53 109.278 53C164.108 53 208.556 97.4483 208.556 152.278C208.556 207.108 164.108 251.556 109.278 251.556C54.4483 251.556 10 207.108 10 152.278Z" fill="#EEEDED"/>
<path d="M18.0988 266.911C13.3798 266.911 9.55438 270.737 9.55438 275.456C9.55438 280.174 13.3798 284 18.0988 284C22.8177 284 26.6432 280.174 26.6432 275.456C26.6432 270.737 22.8177 266.911 18.0988 266.911Z" fill="#EEEDED"/>
<path d="M42.7162 33.4832C35.1438 27.4811 24.1395 28.754 18.1374 36.3263C12.1353 43.8987 13.4082 54.9029 20.9805 60.9051C28.5528 66.9072 39.5571 65.6343 45.5593 58.062C51.5614 50.4896 50.2885 39.4854 42.7162 33.4832Z" fill="#2B2A29"/>
<path d="M179.988 264.671C187.378 270.897 198.415 269.954 204.641 262.565C210.867 255.175 209.924 244.138 202.535 237.912C195.145 231.686 184.108 232.629 177.882 240.018C171.656 247.408 172.599 258.445 179.988 264.671Z" fill="#2B2A29"/>
<path opacity="0.4" d="M155.25 159.382C151.145 159.382 147.805 156.072 147.805 152.005C147.805 147.933 151.145 144.623 155.25 144.623C156.245 144.623 157.2 144.232 157.9 143.538C158.605 142.839 159 141.893 159 140.907L158.995 127.521C158.995 116.205 149.7 107 138.28 107H79.72C68.3 107 59.005 116.205 59.005 127.521L59 141.338C59 142.324 59.395 143.271 60.1 143.969C60.8 144.663 61.755 145.054 62.75 145.054C66.995 145.054 70.195 148.042 70.195 152.005C70.195 156.072 66.855 159.382 62.75 159.382C60.68 159.382 59 161.047 59 163.098V176.474C59 187.79 68.29 197 79.715 197H138.285C149.71 197 159 187.79 159 176.474V163.098C159 161.047 157.32 159.382 155.25 159.382Z" fill="#E31E24"/>
<path d="M1.79109 75.2891C3.88486 72.6476 7.72357 72.2035 10.3651 74.2973C13.0066 76.3911 13.4506 80.2298 11.3569 82.8713C9.26309 85.5128 5.42438 85.9569 2.78287 83.8631C0.141356 81.7693 -0.302679 77.9306 1.79109 75.2891Z" fill="#E31E24"/>
<path d="M222.146 224.108C219.974 226.686 216.123 227.015 213.546 224.843C210.968 222.671 210.639 218.821 212.811 216.243C214.983 213.666 218.833 213.337 221.411 215.509C223.988 217.68 224.317 221.531 222.146 224.108Z" fill="#E31E24"/>
<path d="M120.257 155.683L126.152 149.943C127.177 148.953 127.532 147.498 127.087 146.143C126.647 144.793 125.497 143.833 124.107 143.638L115.962 142.448L112.317 135.068C111.692 133.798 110.422 133.008 109.007 133.003H108.997C107.587 133.003 106.317 133.793 105.682 135.063L102.037 142.448L93.9075 143.633C92.5025 143.833 91.3525 144.793 90.9075 146.143C90.4675 147.498 90.8225 148.953 91.8425 149.943L97.7375 155.683L96.3475 163.798C96.1075 165.203 96.6725 166.588 97.8225 167.423C98.4725 167.893 99.2275 168.133 99.9925 168.133C100.577 168.133 101.167 167.983 101.707 167.698L108.997 163.868L116.272 167.693C117.532 168.363 119.027 168.258 120.172 167.418C121.327 166.588 121.892 165.203 121.652 163.798L120.257 155.683Z" fill="#E31E24"/>
</svg>
